<mxfile host="Electron" agent="Mozilla/5.0 (Windows NT 10.0; Win64; x64) AppleWebKit/537.36 (KHTML, like Gecko) draw.io/25.0.2 Chrome/128.0.6613.186 Electron/32.2.5 Safari/537.36" version="25.0.2">
  <diagram name="Page-1" id="3ina4x9qBi-tw7xi2LEH">
    <mxGraphModel dx="819" dy="546" grid="1" gridSize="10" guides="1" tooltips="1" connect="1" arrows="1" fold="1" page="1" pageScale="1" pageWidth="850" pageHeight="1100" math="0" shadow="0">
      <root>
        <mxCell id="0" />
        <mxCell id="1" parent="0" />
        <mxCell id="YV7EcNf5cNCoO8YkhrmA-1" value="" style="rounded=0;whiteSpace=wrap;html=1;fillColor=#f8cecc;strokeColor=#b85450;" vertex="1" parent="1">
          <mxGeometry x="596.63" y="160" width="243.37" height="250" as="geometry" />
        </mxCell>
        <mxCell id="YV7EcNf5cNCoO8YkhrmA-2" value="" style="rounded=0;whiteSpace=wrap;html=1;fillColor=#fff2cc;strokeColor=#d6b656;" vertex="1" parent="1">
          <mxGeometry x="620" y="80" width="183.37" height="70" as="geometry" />
        </mxCell>
        <mxCell id="YV7EcNf5cNCoO8YkhrmA-3" value="" style="html=1;strokeWidth=2;shape=manualInput;whiteSpace=wrap;rounded=1;size=73;arcSize=0;rotation=-90;fillColor=#e1d5e7;strokeColor=#9673a6;" vertex="1" parent="1">
          <mxGeometry x="337.5" y="45" width="227.5" height="272.5" as="geometry" />
        </mxCell>
        <mxCell id="YV7EcNf5cNCoO8YkhrmA-4" value="" style="endArrow=none;html=1;rounded=0;entryX=0.959;entryY=0.08;entryDx=0;entryDy=0;entryPerimeter=0;" edge="1" parent="1" source="YV7EcNf5cNCoO8YkhrmA-104" target="YV7EcNf5cNCoO8YkhrmA-1">
          <mxGeometry width="50" height="50" relative="1" as="geometry">
            <mxPoint x="535" y="180" as="sourcePoint" />
            <mxPoint x="775" y="180" as="targetPoint" />
          </mxGeometry>
        </mxCell>
        <mxCell id="YV7EcNf5cNCoO8YkhrmA-5" value="" style="rounded=0;whiteSpace=wrap;html=1;fillColor=#ffe6cc;strokeColor=#d79b00;" vertex="1" parent="1">
          <mxGeometry x="45" y="70" width="220" height="60" as="geometry" />
        </mxCell>
        <mxCell id="YV7EcNf5cNCoO8YkhrmA-6" value="" style="rounded=0;whiteSpace=wrap;html=1;fillColor=#dae8fc;strokeColor=#6c8ebf;" vertex="1" parent="1">
          <mxGeometry x="25" y="140" width="305" height="230" as="geometry" />
        </mxCell>
        <mxCell id="YV7EcNf5cNCoO8YkhrmA-7" value="Pr1" style="whiteSpace=wrap;html=1;aspect=fixed;" vertex="1" parent="1">
          <mxGeometry x="55" y="80" width="40" height="40" as="geometry" />
        </mxCell>
        <mxCell id="YV7EcNf5cNCoO8YkhrmA-8" value="Pr2" style="whiteSpace=wrap;html=1;aspect=fixed;" vertex="1" parent="1">
          <mxGeometry x="135" y="80" width="40" height="40" as="geometry" />
        </mxCell>
        <mxCell id="YV7EcNf5cNCoO8YkhrmA-9" value="Pr3" style="whiteSpace=wrap;html=1;aspect=fixed;" vertex="1" parent="1">
          <mxGeometry x="215" y="80" width="40" height="40" as="geometry" />
        </mxCell>
        <mxCell id="YV7EcNf5cNCoO8YkhrmA-10" value="" style="endArrow=none;html=1;rounded=0;" edge="1" parent="1" source="YV7EcNf5cNCoO8YkhrmA-41">
          <mxGeometry width="50" height="50" relative="1" as="geometry">
            <mxPoint x="55" y="160" as="sourcePoint" />
            <mxPoint x="355" y="160" as="targetPoint" />
          </mxGeometry>
        </mxCell>
        <mxCell id="YV7EcNf5cNCoO8YkhrmA-11" value="" style="endArrow=none;html=1;rounded=0;" edge="1" parent="1" source="YV7EcNf5cNCoO8YkhrmA-39">
          <mxGeometry width="50" height="50" relative="1" as="geometry">
            <mxPoint x="55" y="200" as="sourcePoint" />
            <mxPoint x="355" y="200" as="targetPoint" />
          </mxGeometry>
        </mxCell>
        <mxCell id="YV7EcNf5cNCoO8YkhrmA-12" value="B1" style="text;html=1;align=center;verticalAlign=middle;whiteSpace=wrap;rounded=0;" vertex="1" parent="1">
          <mxGeometry x="25" y="140" width="30" height="30" as="geometry" />
        </mxCell>
        <mxCell id="YV7EcNf5cNCoO8YkhrmA-13" value="B2" style="text;html=1;align=center;verticalAlign=middle;whiteSpace=wrap;rounded=0;" vertex="1" parent="1">
          <mxGeometry x="25" y="180" width="30" height="30" as="geometry" />
        </mxCell>
        <mxCell id="YV7EcNf5cNCoO8YkhrmA-14" value="" style="endArrow=none;html=1;rounded=0;exitX=0.25;exitY=1;exitDx=0;exitDy=0;" edge="1" parent="1" source="YV7EcNf5cNCoO8YkhrmA-7" target="YV7EcNf5cNCoO8YkhrmA-43">
          <mxGeometry width="50" height="50" relative="1" as="geometry">
            <mxPoint x="355" y="280" as="sourcePoint" />
            <mxPoint x="65" y="160" as="targetPoint" />
          </mxGeometry>
        </mxCell>
        <mxCell id="YV7EcNf5cNCoO8YkhrmA-15" value="" style="endArrow=none;html=1;rounded=0;exitX=0.75;exitY=1;exitDx=0;exitDy=0;" edge="1" parent="1" source="YV7EcNf5cNCoO8YkhrmA-7">
          <mxGeometry width="50" height="50" relative="1" as="geometry">
            <mxPoint x="355" y="280" as="sourcePoint" />
            <mxPoint x="85" y="200" as="targetPoint" />
          </mxGeometry>
        </mxCell>
        <mxCell id="YV7EcNf5cNCoO8YkhrmA-16" value="" style="endArrow=none;html=1;rounded=0;exitX=0.25;exitY=1;exitDx=0;exitDy=0;" edge="1" parent="1" source="YV7EcNf5cNCoO8YkhrmA-8">
          <mxGeometry width="50" height="50" relative="1" as="geometry">
            <mxPoint x="355" y="280" as="sourcePoint" />
            <mxPoint x="145" y="160" as="targetPoint" />
          </mxGeometry>
        </mxCell>
        <mxCell id="YV7EcNf5cNCoO8YkhrmA-17" value="" style="endArrow=none;html=1;rounded=0;exitX=0.75;exitY=1;exitDx=0;exitDy=0;" edge="1" parent="1" source="YV7EcNf5cNCoO8YkhrmA-8">
          <mxGeometry width="50" height="50" relative="1" as="geometry">
            <mxPoint x="355" y="280" as="sourcePoint" />
            <mxPoint x="165" y="200" as="targetPoint" />
          </mxGeometry>
        </mxCell>
        <mxCell id="YV7EcNf5cNCoO8YkhrmA-18" value="" style="endArrow=none;html=1;rounded=0;entryX=0.75;entryY=1;entryDx=0;entryDy=0;" edge="1" parent="1" target="YV7EcNf5cNCoO8YkhrmA-9">
          <mxGeometry width="50" height="50" relative="1" as="geometry">
            <mxPoint x="245" y="200" as="sourcePoint" />
            <mxPoint x="255" y="170" as="targetPoint" />
          </mxGeometry>
        </mxCell>
        <mxCell id="YV7EcNf5cNCoO8YkhrmA-19" value="" style="endArrow=none;html=1;rounded=0;entryX=0.25;entryY=1;entryDx=0;entryDy=0;" edge="1" parent="1" target="YV7EcNf5cNCoO8YkhrmA-9">
          <mxGeometry width="50" height="50" relative="1" as="geometry">
            <mxPoint x="225" y="160" as="sourcePoint" />
            <mxPoint x="255" y="170" as="targetPoint" />
          </mxGeometry>
        </mxCell>
        <mxCell id="YV7EcNf5cNCoO8YkhrmA-20" value="ะก1" style="whiteSpace=wrap;html=1;aspect=fixed;" vertex="1" parent="1">
          <mxGeometry x="55" y="240" width="40" height="40" as="geometry" />
        </mxCell>
        <mxCell id="YV7EcNf5cNCoO8YkhrmA-21" value="" style="endArrow=none;html=1;rounded=0;exitX=0.25;exitY=0;exitDx=0;exitDy=0;" edge="1" parent="1" source="YV7EcNf5cNCoO8YkhrmA-20">
          <mxGeometry width="50" height="50" relative="1" as="geometry">
            <mxPoint x="245" y="270" as="sourcePoint" />
            <mxPoint x="65" y="200" as="targetPoint" />
          </mxGeometry>
        </mxCell>
        <mxCell id="YV7EcNf5cNCoO8YkhrmA-22" value="" style="endArrow=none;html=1;rounded=0;exitX=0.5;exitY=0;exitDx=0;exitDy=0;" edge="1" parent="1" source="YV7EcNf5cNCoO8YkhrmA-20">
          <mxGeometry width="50" height="50" relative="1" as="geometry">
            <mxPoint x="245" y="270" as="sourcePoint" />
            <mxPoint x="75" y="160" as="targetPoint" />
          </mxGeometry>
        </mxCell>
        <mxCell id="YV7EcNf5cNCoO8YkhrmA-23" value="D1" style="whiteSpace=wrap;html=1;aspect=fixed;" vertex="1" parent="1">
          <mxGeometry x="55" y="320" width="40" height="40" as="geometry" />
        </mxCell>
        <mxCell id="YV7EcNf5cNCoO8YkhrmA-24" value="D2" style="whiteSpace=wrap;html=1;aspect=fixed;" vertex="1" parent="1">
          <mxGeometry x="135" y="320" width="40" height="40" as="geometry" />
        </mxCell>
        <mxCell id="YV7EcNf5cNCoO8YkhrmA-25" value="" style="endArrow=none;html=1;rounded=0;exitX=0.5;exitY=1;exitDx=0;exitDy=0;entryX=0.5;entryY=0;entryDx=0;entryDy=0;" edge="1" parent="1" source="YV7EcNf5cNCoO8YkhrmA-20" target="YV7EcNf5cNCoO8YkhrmA-23">
          <mxGeometry width="50" height="50" relative="1" as="geometry">
            <mxPoint x="245" y="270" as="sourcePoint" />
            <mxPoint x="295" y="220" as="targetPoint" />
          </mxGeometry>
        </mxCell>
        <mxCell id="YV7EcNf5cNCoO8YkhrmA-26" value="" style="endArrow=none;html=1;rounded=0;exitX=0.5;exitY=0;exitDx=0;exitDy=0;entryX=0.5;entryY=1;entryDx=0;entryDy=0;" edge="1" parent="1" source="YV7EcNf5cNCoO8YkhrmA-24" target="YV7EcNf5cNCoO8YkhrmA-20">
          <mxGeometry width="50" height="50" relative="1" as="geometry">
            <mxPoint x="245" y="270" as="sourcePoint" />
            <mxPoint x="295" y="220" as="targetPoint" />
          </mxGeometry>
        </mxCell>
        <mxCell id="YV7EcNf5cNCoO8YkhrmA-27" value="ะก2" style="whiteSpace=wrap;html=1;aspect=fixed;" vertex="1" parent="1">
          <mxGeometry x="215" y="240" width="40" height="40" as="geometry" />
        </mxCell>
        <mxCell id="YV7EcNf5cNCoO8YkhrmA-28" value="D3" style="whiteSpace=wrap;html=1;aspect=fixed;" vertex="1" parent="1">
          <mxGeometry x="215" y="320" width="40" height="40" as="geometry" />
        </mxCell>
        <mxCell id="YV7EcNf5cNCoO8YkhrmA-29" value="" style="endArrow=none;html=1;rounded=0;exitX=0.5;exitY=1;exitDx=0;exitDy=0;entryX=0.5;entryY=0;entryDx=0;entryDy=0;" edge="1" parent="1" source="YV7EcNf5cNCoO8YkhrmA-27" target="YV7EcNf5cNCoO8YkhrmA-28">
          <mxGeometry width="50" height="50" relative="1" as="geometry">
            <mxPoint x="245" y="270" as="sourcePoint" />
            <mxPoint x="295" y="220" as="targetPoint" />
          </mxGeometry>
        </mxCell>
        <mxCell id="YV7EcNf5cNCoO8YkhrmA-30" value="" style="endArrow=none;html=1;rounded=0;exitX=0.5;exitY=0;exitDx=0;exitDy=0;entryX=0.5;entryY=1;entryDx=0;entryDy=0;" edge="1" parent="1" source="YV7EcNf5cNCoO8YkhrmA-24" target="YV7EcNf5cNCoO8YkhrmA-27">
          <mxGeometry width="50" height="50" relative="1" as="geometry">
            <mxPoint x="245" y="270" as="sourcePoint" />
            <mxPoint x="295" y="220" as="targetPoint" />
          </mxGeometry>
        </mxCell>
        <mxCell id="YV7EcNf5cNCoO8YkhrmA-31" value="" style="endArrow=none;html=1;rounded=0;entryX=0.25;entryY=0;entryDx=0;entryDy=0;" edge="1" parent="1" target="YV7EcNf5cNCoO8YkhrmA-27">
          <mxGeometry width="50" height="50" relative="1" as="geometry">
            <mxPoint x="225" y="200" as="sourcePoint" />
            <mxPoint x="295" y="220" as="targetPoint" />
          </mxGeometry>
        </mxCell>
        <mxCell id="YV7EcNf5cNCoO8YkhrmA-32" value="" style="endArrow=none;html=1;rounded=0;exitX=0.5;exitY=0;exitDx=0;exitDy=0;" edge="1" parent="1" source="YV7EcNf5cNCoO8YkhrmA-27">
          <mxGeometry width="50" height="50" relative="1" as="geometry">
            <mxPoint x="245" y="270" as="sourcePoint" />
            <mxPoint x="235" y="160" as="targetPoint" />
          </mxGeometry>
        </mxCell>
        <mxCell id="YV7EcNf5cNCoO8YkhrmA-33" style="edgeStyle=orthogonalEdgeStyle;rounded=0;orthogonalLoop=1;jettySize=auto;html=1;endArrow=oval;endFill=1;" edge="1" parent="1" source="YV7EcNf5cNCoO8YkhrmA-35">
          <mxGeometry relative="1" as="geometry">
            <mxPoint x="425" y="240" as="targetPoint" />
            <Array as="points">
              <mxPoint x="425" y="110" />
            </Array>
          </mxGeometry>
        </mxCell>
        <mxCell id="YV7EcNf5cNCoO8YkhrmA-34" style="edgeStyle=orthogonalEdgeStyle;rounded=0;orthogonalLoop=1;jettySize=auto;html=1;endArrow=oval;endFill=1;" edge="1" parent="1" source="YV7EcNf5cNCoO8YkhrmA-35">
          <mxGeometry relative="1" as="geometry">
            <mxPoint x="435" y="280" as="targetPoint" />
          </mxGeometry>
        </mxCell>
        <mxCell id="YV7EcNf5cNCoO8YkhrmA-35" value="A1" style="whiteSpace=wrap;html=1;aspect=fixed;" vertex="1" parent="1">
          <mxGeometry x="335" y="80" width="40" height="40" as="geometry" />
        </mxCell>
        <mxCell id="YV7EcNf5cNCoO8YkhrmA-36" value="" style="endArrow=none;html=1;rounded=0;entryX=0;entryY=1;entryDx=0;entryDy=0;" edge="1" parent="1" target="YV7EcNf5cNCoO8YkhrmA-35">
          <mxGeometry width="50" height="50" relative="1" as="geometry">
            <mxPoint x="335" y="160" as="sourcePoint" />
            <mxPoint x="455" y="170" as="targetPoint" />
          </mxGeometry>
        </mxCell>
        <mxCell id="YV7EcNf5cNCoO8YkhrmA-37" value="" style="endArrow=none;html=1;rounded=0;entryX=0.25;entryY=1;entryDx=0;entryDy=0;" edge="1" parent="1" target="YV7EcNf5cNCoO8YkhrmA-35">
          <mxGeometry width="50" height="50" relative="1" as="geometry">
            <mxPoint x="345" y="200" as="sourcePoint" />
            <mxPoint x="465" y="210" as="targetPoint" />
          </mxGeometry>
        </mxCell>
        <mxCell id="YV7EcNf5cNCoO8YkhrmA-38" value="" style="endArrow=none;html=1;rounded=0;" edge="1" parent="1" target="YV7EcNf5cNCoO8YkhrmA-39">
          <mxGeometry width="50" height="50" relative="1" as="geometry">
            <mxPoint x="55" y="200" as="sourcePoint" />
            <mxPoint x="355" y="200" as="targetPoint" />
          </mxGeometry>
        </mxCell>
        <mxCell id="YV7EcNf5cNCoO8YkhrmA-39" value="" style="shape=waypoint;sketch=0;fillStyle=solid;size=6;pointerEvents=1;points=[];fillColor=none;resizable=0;rotatable=0;perimeter=centerPerimeter;snapToPoint=1;" vertex="1" parent="1">
          <mxGeometry x="55" y="190" width="20" height="20" as="geometry" />
        </mxCell>
        <mxCell id="YV7EcNf5cNCoO8YkhrmA-40" value="" style="endArrow=none;html=1;rounded=0;" edge="1" parent="1" target="YV7EcNf5cNCoO8YkhrmA-41">
          <mxGeometry width="50" height="50" relative="1" as="geometry">
            <mxPoint x="55" y="160" as="sourcePoint" />
            <mxPoint x="355" y="160" as="targetPoint" />
          </mxGeometry>
        </mxCell>
        <mxCell id="YV7EcNf5cNCoO8YkhrmA-41" value="" style="shape=waypoint;sketch=0;fillStyle=solid;size=6;pointerEvents=1;points=[];fillColor=none;resizable=0;rotatable=0;perimeter=centerPerimeter;snapToPoint=1;" vertex="1" parent="1">
          <mxGeometry x="65" y="150" width="20" height="20" as="geometry" />
        </mxCell>
        <mxCell id="YV7EcNf5cNCoO8YkhrmA-42" value="" style="shape=waypoint;sketch=0;fillStyle=solid;size=6;pointerEvents=1;points=[];fillColor=none;resizable=0;rotatable=0;perimeter=centerPerimeter;snapToPoint=1;" vertex="1" parent="1">
          <mxGeometry x="75" y="190" width="20" height="20" as="geometry" />
        </mxCell>
        <mxCell id="YV7EcNf5cNCoO8YkhrmA-43" value="" style="shape=waypoint;sketch=0;fillStyle=solid;size=6;pointerEvents=1;points=[];fillColor=none;resizable=0;rotatable=0;perimeter=centerPerimeter;snapToPoint=1;" vertex="1" parent="1">
          <mxGeometry x="55" y="150" width="20" height="20" as="geometry" />
        </mxCell>
        <mxCell id="YV7EcNf5cNCoO8YkhrmA-44" value="" style="shape=waypoint;sketch=0;fillStyle=solid;size=6;pointerEvents=1;points=[];fillColor=none;resizable=0;rotatable=0;perimeter=centerPerimeter;snapToPoint=1;" vertex="1" parent="1">
          <mxGeometry x="135" y="150" width="20" height="20" as="geometry" />
        </mxCell>
        <mxCell id="YV7EcNf5cNCoO8YkhrmA-45" value="" style="shape=waypoint;sketch=0;fillStyle=solid;size=6;pointerEvents=1;points=[];fillColor=none;resizable=0;rotatable=0;perimeter=centerPerimeter;snapToPoint=1;" vertex="1" parent="1">
          <mxGeometry x="155" y="190" width="20" height="20" as="geometry" />
        </mxCell>
        <mxCell id="YV7EcNf5cNCoO8YkhrmA-46" value="" style="shape=waypoint;sketch=0;fillStyle=solid;size=6;pointerEvents=1;points=[];fillColor=none;resizable=0;rotatable=0;perimeter=centerPerimeter;snapToPoint=1;" vertex="1" parent="1">
          <mxGeometry x="215" y="190" width="20" height="20" as="geometry" />
        </mxCell>
        <mxCell id="YV7EcNf5cNCoO8YkhrmA-47" value="" style="shape=waypoint;sketch=0;fillStyle=solid;size=6;pointerEvents=1;points=[];fillColor=none;resizable=0;rotatable=0;perimeter=centerPerimeter;snapToPoint=1;" vertex="1" parent="1">
          <mxGeometry x="215" y="150" width="20" height="20" as="geometry" />
        </mxCell>
        <mxCell id="YV7EcNf5cNCoO8YkhrmA-48" value="" style="shape=waypoint;sketch=0;fillStyle=solid;size=6;pointerEvents=1;points=[];fillColor=none;resizable=0;rotatable=0;perimeter=centerPerimeter;snapToPoint=1;" vertex="1" parent="1">
          <mxGeometry x="235" y="190" width="20" height="20" as="geometry" />
        </mxCell>
        <mxCell id="YV7EcNf5cNCoO8YkhrmA-49" value="" style="shape=waypoint;sketch=0;fillStyle=solid;size=6;pointerEvents=1;points=[];fillColor=none;resizable=0;rotatable=0;perimeter=centerPerimeter;snapToPoint=1;" vertex="1" parent="1">
          <mxGeometry x="225" y="150" width="20" height="20" as="geometry" />
        </mxCell>
        <mxCell id="YV7EcNf5cNCoO8YkhrmA-50" value="" style="shape=waypoint;sketch=0;fillStyle=solid;size=6;pointerEvents=1;points=[];fillColor=none;resizable=0;rotatable=0;perimeter=centerPerimeter;snapToPoint=1;" vertex="1" parent="1">
          <mxGeometry x="295" y="190" width="20" height="20" as="geometry" />
        </mxCell>
        <mxCell id="YV7EcNf5cNCoO8YkhrmA-51" value="" style="shape=waypoint;sketch=0;fillStyle=solid;size=6;pointerEvents=1;points=[];fillColor=none;resizable=0;rotatable=0;perimeter=centerPerimeter;snapToPoint=1;" vertex="1" parent="1">
          <mxGeometry x="325" y="150" width="20" height="20" as="geometry" />
        </mxCell>
        <mxCell id="YV7EcNf5cNCoO8YkhrmA-52" value="" style="shape=waypoint;sketch=0;fillStyle=solid;size=6;pointerEvents=1;points=[];fillColor=none;resizable=0;rotatable=0;perimeter=centerPerimeter;snapToPoint=1;" vertex="1" parent="1">
          <mxGeometry x="335" y="190" width="20" height="20" as="geometry" />
        </mxCell>
        <mxCell id="YV7EcNf5cNCoO8YkhrmA-53" value="" style="endArrow=none;html=1;rounded=0;" edge="1" parent="1">
          <mxGeometry width="50" height="50" relative="1" as="geometry">
            <mxPoint x="415" y="240" as="sourcePoint" />
            <mxPoint x="535" y="240" as="targetPoint" />
          </mxGeometry>
        </mxCell>
        <mxCell id="YV7EcNf5cNCoO8YkhrmA-54" value="M1" style="text;html=1;align=center;verticalAlign=middle;whiteSpace=wrap;rounded=0;" vertex="1" parent="1">
          <mxGeometry x="385" y="220" width="20" height="20" as="geometry" />
        </mxCell>
        <mxCell id="YV7EcNf5cNCoO8YkhrmA-55" value="" style="endArrow=none;html=1;rounded=0;" edge="1" parent="1">
          <mxGeometry width="50" height="50" relative="1" as="geometry">
            <mxPoint x="415" y="280" as="sourcePoint" />
            <mxPoint x="535" y="280" as="targetPoint" />
          </mxGeometry>
        </mxCell>
        <mxCell id="YV7EcNf5cNCoO8YkhrmA-56" value="M2" style="text;html=1;align=center;verticalAlign=middle;whiteSpace=wrap;rounded=0;" vertex="1" parent="1">
          <mxGeometry x="385" y="260" width="20" height="20" as="geometry" />
        </mxCell>
        <mxCell id="YV7EcNf5cNCoO8YkhrmA-57" style="edgeStyle=orthogonalEdgeStyle;rounded=0;orthogonalLoop=1;jettySize=auto;html=1;endArrow=oval;endFill=1;" edge="1" parent="1" source="YV7EcNf5cNCoO8YkhrmA-61">
          <mxGeometry relative="1" as="geometry">
            <mxPoint x="500" y="240" as="targetPoint" />
            <Array as="points">
              <mxPoint x="500" y="100" />
              <mxPoint x="500" y="240" />
            </Array>
          </mxGeometry>
        </mxCell>
        <mxCell id="YV7EcNf5cNCoO8YkhrmA-58" style="edgeStyle=orthogonalEdgeStyle;rounded=0;orthogonalLoop=1;jettySize=auto;html=1;endArrow=oval;endFill=1;" edge="1" parent="1">
          <mxGeometry relative="1" as="geometry">
            <mxPoint x="545" y="200" as="targetPoint" />
            <mxPoint x="545.0000000000002" y="120" as="sourcePoint" />
          </mxGeometry>
        </mxCell>
        <mxCell id="YV7EcNf5cNCoO8YkhrmA-59" style="edgeStyle=orthogonalEdgeStyle;rounded=0;orthogonalLoop=1;jettySize=auto;html=1;endArrow=oval;endFill=1;" edge="1" parent="1" source="YV7EcNf5cNCoO8YkhrmA-61">
          <mxGeometry relative="1" as="geometry">
            <mxPoint x="510" y="280" as="targetPoint" />
            <Array as="points">
              <mxPoint x="510" y="110" />
            </Array>
          </mxGeometry>
        </mxCell>
        <mxCell id="YV7EcNf5cNCoO8YkhrmA-60" style="edgeStyle=orthogonalEdgeStyle;rounded=0;orthogonalLoop=1;jettySize=auto;html=1;endArrow=oval;endFill=1;" edge="1" parent="1" source="YV7EcNf5cNCoO8YkhrmA-61">
          <mxGeometry relative="1" as="geometry">
            <mxPoint x="555" y="180" as="targetPoint" />
          </mxGeometry>
        </mxCell>
        <mxCell id="YV7EcNf5cNCoO8YkhrmA-61" value="A2" style="whiteSpace=wrap;html=1;aspect=fixed;" vertex="1" parent="1">
          <mxGeometry x="535" y="80" width="40" height="40" as="geometry" />
        </mxCell>
        <mxCell id="YV7EcNf5cNCoO8YkhrmA-62" value="" style="endArrow=none;html=1;rounded=0;entryX=0.959;entryY=0.16;entryDx=0;entryDy=0;entryPerimeter=0;" edge="1" parent="1" target="YV7EcNf5cNCoO8YkhrmA-1">
          <mxGeometry width="50" height="50" relative="1" as="geometry">
            <mxPoint x="650" y="200" as="sourcePoint" />
            <mxPoint x="775" y="200" as="targetPoint" />
          </mxGeometry>
        </mxCell>
        <mxCell id="YV7EcNf5cNCoO8YkhrmA-63" style="edgeStyle=orthogonalEdgeStyle;rounded=0;orthogonalLoop=1;jettySize=auto;html=1;endArrow=oval;endFill=1;" edge="1" parent="1">
          <mxGeometry relative="1" as="geometry">
            <mxPoint x="690" y="180" as="targetPoint" />
            <mxPoint x="690" y="135" as="sourcePoint" />
            <Array as="points">
              <mxPoint x="690" y="180" />
            </Array>
          </mxGeometry>
        </mxCell>
        <mxCell id="YV7EcNf5cNCoO8YkhrmA-64" style="edgeStyle=orthogonalEdgeStyle;rounded=0;orthogonalLoop=1;jettySize=auto;html=1;endArrow=oval;endFill=1;fillColor=#d80073;strokeColor=#A50040;strokeWidth=2;" edge="1" parent="1" source="YV7EcNf5cNCoO8YkhrmA-65">
          <mxGeometry relative="1" as="geometry">
            <mxPoint x="675" y="200" as="targetPoint" />
          </mxGeometry>
        </mxCell>
        <mxCell id="YV7EcNf5cNCoO8YkhrmA-65" value="Pr5" style="whiteSpace=wrap;html=1;aspect=fixed;" vertex="1" parent="1">
          <mxGeometry x="655" y="95" width="40" height="40" as="geometry" />
        </mxCell>
        <mxCell id="YV7EcNf5cNCoO8YkhrmA-66" value="Pr6" style="whiteSpace=wrap;html=1;aspect=fixed;" vertex="1" parent="1">
          <mxGeometry x="735" y="95" width="40" height="40" as="geometry" />
        </mxCell>
        <mxCell id="YV7EcNf5cNCoO8YkhrmA-70" value="B4" style="text;html=1;align=center;verticalAlign=middle;whiteSpace=wrap;rounded=0;" vertex="1" parent="1">
          <mxGeometry x="590" y="200" width="30" height="30" as="geometry" />
        </mxCell>
        <mxCell id="YV7EcNf5cNCoO8YkhrmA-71" value="B5" style="text;html=1;align=center;verticalAlign=middle;whiteSpace=wrap;rounded=0;" vertex="1" parent="1">
          <mxGeometry x="590" y="155" width="30" height="30" as="geometry" />
        </mxCell>
        <mxCell id="YV7EcNf5cNCoO8YkhrmA-72" value="f1" style="text;html=1;align=center;verticalAlign=middle;whiteSpace=wrap;rounded=0;" vertex="1" parent="1">
          <mxGeometry x="35" y="370" width="20" height="30" as="geometry" />
        </mxCell>
        <mxCell id="YV7EcNf5cNCoO8YkhrmA-73" value="" style="group" vertex="1" connectable="0" parent="1">
          <mxGeometry x="285" y="200" width="40" height="160" as="geometry" />
        </mxCell>
        <mxCell id="YV7EcNf5cNCoO8YkhrmA-74" value="ะก4" style="whiteSpace=wrap;html=1;aspect=fixed;" vertex="1" parent="YV7EcNf5cNCoO8YkhrmA-73">
          <mxGeometry y="40" width="40" height="40" as="geometry" />
        </mxCell>
        <mxCell id="YV7EcNf5cNCoO8YkhrmA-75" value="D6" style="whiteSpace=wrap;html=1;aspect=fixed;" vertex="1" parent="YV7EcNf5cNCoO8YkhrmA-73">
          <mxGeometry y="120" width="40" height="40" as="geometry" />
        </mxCell>
        <mxCell id="YV7EcNf5cNCoO8YkhrmA-76" value="" style="endArrow=none;html=1;rounded=0;" edge="1" parent="YV7EcNf5cNCoO8YkhrmA-73">
          <mxGeometry width="50" height="50" relative="1" as="geometry">
            <mxPoint x="20" y="40" as="sourcePoint" />
            <mxPoint x="20" as="targetPoint" />
          </mxGeometry>
        </mxCell>
        <mxCell id="YV7EcNf5cNCoO8YkhrmA-77" value="" style="endArrow=none;html=1;rounded=0;exitX=0.5;exitY=1;exitDx=0;exitDy=0;entryX=0.5;entryY=0;entryDx=0;entryDy=0;" edge="1" parent="YV7EcNf5cNCoO8YkhrmA-73" source="YV7EcNf5cNCoO8YkhrmA-74" target="YV7EcNf5cNCoO8YkhrmA-75">
          <mxGeometry width="50" height="50" relative="1" as="geometry">
            <mxPoint x="-50" y="70" as="sourcePoint" />
            <mxPoint y="20" as="targetPoint" />
          </mxGeometry>
        </mxCell>
        <mxCell id="YV7EcNf5cNCoO8YkhrmA-78" value="f3" style="text;html=1;align=center;verticalAlign=middle;whiteSpace=wrap;rounded=0;" vertex="1" parent="1">
          <mxGeometry x="145" y="40" width="60" height="30" as="geometry" />
        </mxCell>
        <mxCell id="YV7EcNf5cNCoO8YkhrmA-79" value="f4" style="text;html=1;align=center;verticalAlign=middle;whiteSpace=wrap;rounded=0;" vertex="1" parent="1">
          <mxGeometry x="695" y="410" width="30" height="30" as="geometry" />
        </mxCell>
        <mxCell id="YV7EcNf5cNCoO8YkhrmA-80" value="f5" style="text;html=1;align=center;verticalAlign=middle;whiteSpace=wrap;rounded=0;" vertex="1" parent="1">
          <mxGeometry x="770" y="50" width="30" height="30" as="geometry" />
        </mxCell>
        <mxCell id="YV7EcNf5cNCoO8YkhrmA-81" value="f6" style="text;html=1;align=center;verticalAlign=middle;whiteSpace=wrap;rounded=0;" vertex="1" parent="1">
          <mxGeometry x="435" y="300" width="60" height="30" as="geometry" />
        </mxCell>
        <mxCell id="YV7EcNf5cNCoO8YkhrmA-82" value="" style="endArrow=none;html=1;rounded=0;exitX=0.5;exitY=0;exitDx=0;exitDy=0;entryX=0.5;entryY=1;entryDx=0;entryDy=0;fillColor=#d80073;strokeColor=#A50040;strokeWidth=2;" edge="1" parent="1" source="YV7EcNf5cNCoO8YkhrmA-23" target="YV7EcNf5cNCoO8YkhrmA-27">
          <mxGeometry width="50" height="50" relative="1" as="geometry">
            <mxPoint x="150" y="460" as="sourcePoint" />
            <mxPoint x="200" y="410" as="targetPoint" />
          </mxGeometry>
        </mxCell>
        <mxCell id="YV7EcNf5cNCoO8YkhrmA-83" value="" style="endArrow=none;html=1;rounded=0;exitX=0.5;exitY=0;exitDx=0;exitDy=0;entryX=0.5;entryY=1;entryDx=0;entryDy=0;fillColor=#d80073;strokeColor=#A50040;strokeWidth=2;" edge="1" parent="1" source="YV7EcNf5cNCoO8YkhrmA-28" target="YV7EcNf5cNCoO8YkhrmA-20">
          <mxGeometry width="50" height="50" relative="1" as="geometry">
            <mxPoint x="360" y="290" as="sourcePoint" />
            <mxPoint x="410" y="240" as="targetPoint" />
          </mxGeometry>
        </mxCell>
        <mxCell id="YV7EcNf5cNCoO8YkhrmA-84" value="" style="endArrow=none;html=1;rounded=0;exitX=0.5;exitY=0;exitDx=0;exitDy=0;entryX=0.5;entryY=1;entryDx=0;entryDy=0;fillColor=#d80073;strokeColor=#A50040;strokeWidth=2;" edge="1" parent="1" source="YV7EcNf5cNCoO8YkhrmA-28" target="YV7EcNf5cNCoO8YkhrmA-74">
          <mxGeometry width="50" height="50" relative="1" as="geometry">
            <mxPoint x="345" y="400" as="sourcePoint" />
            <mxPoint x="395" y="350" as="targetPoint" />
          </mxGeometry>
        </mxCell>
        <mxCell id="YV7EcNf5cNCoO8YkhrmA-85" value="" style="endArrow=none;html=1;rounded=0;exitX=0.5;exitY=0;exitDx=0;exitDy=0;entryX=0.5;entryY=1;entryDx=0;entryDy=0;fillColor=#d80073;strokeColor=#A50040;strokeWidth=2;" edge="1" parent="1" source="YV7EcNf5cNCoO8YkhrmA-75" target="YV7EcNf5cNCoO8YkhrmA-27">
          <mxGeometry width="50" height="50" relative="1" as="geometry">
            <mxPoint x="360" y="290" as="sourcePoint" />
            <mxPoint x="410" y="240" as="targetPoint" />
          </mxGeometry>
        </mxCell>
        <mxCell id="YV7EcNf5cNCoO8YkhrmA-86" value="" style="endArrow=none;html=1;rounded=0;exitX=0.5;exitY=0;exitDx=0;exitDy=0;entryX=0.5;entryY=1;entryDx=0;entryDy=0;fillColor=#d80073;strokeColor=#A50040;strokeWidth=2;" edge="1" parent="1" source="YV7EcNf5cNCoO8YkhrmA-75" target="YV7EcNf5cNCoO8YkhrmA-20">
          <mxGeometry width="50" height="50" relative="1" as="geometry">
            <mxPoint x="360" y="290" as="sourcePoint" />
            <mxPoint x="410" y="240" as="targetPoint" />
          </mxGeometry>
        </mxCell>
        <mxCell id="YV7EcNf5cNCoO8YkhrmA-87" value="" style="endArrow=none;html=1;rounded=0;exitX=0.5;exitY=0;exitDx=0;exitDy=0;entryX=0.5;entryY=1;entryDx=0;entryDy=0;fillColor=#d80073;strokeColor=#A50040;strokeWidth=2;" edge="1" parent="1" source="YV7EcNf5cNCoO8YkhrmA-23" target="YV7EcNf5cNCoO8YkhrmA-74">
          <mxGeometry width="50" height="50" relative="1" as="geometry">
            <mxPoint x="360" y="290" as="sourcePoint" />
            <mxPoint x="410" y="240" as="targetPoint" />
          </mxGeometry>
        </mxCell>
        <mxCell id="YV7EcNf5cNCoO8YkhrmA-88" value="" style="endArrow=none;html=1;rounded=0;exitX=0.5;exitY=0;exitDx=0;exitDy=0;fillColor=#d80073;strokeColor=#A50040;strokeWidth=2;" edge="1" parent="1" source="YV7EcNf5cNCoO8YkhrmA-24">
          <mxGeometry width="50" height="50" relative="1" as="geometry">
            <mxPoint x="360" y="290" as="sourcePoint" />
            <mxPoint x="300" y="280" as="targetPoint" />
          </mxGeometry>
        </mxCell>
        <mxCell id="YV7EcNf5cNCoO8YkhrmA-89" value="" style="endArrow=none;html=1;rounded=0;entryX=0.25;entryY=0;entryDx=0;entryDy=0;strokeWidth=2;fillColor=#d80073;strokeColor=#A50040;" edge="1" parent="1" target="YV7EcNf5cNCoO8YkhrmA-74">
          <mxGeometry width="50" height="50" relative="1" as="geometry">
            <mxPoint x="295" y="160" as="sourcePoint" />
            <mxPoint x="300" y="250" as="targetPoint" />
          </mxGeometry>
        </mxCell>
        <mxCell id="YV7EcNf5cNCoO8YkhrmA-90" value="" style="shape=waypoint;sketch=0;fillStyle=solid;size=6;pointerEvents=1;points=[];fillColor=#d80073;resizable=0;rotatable=0;perimeter=centerPerimeter;snapToPoint=1;fontColor=#ffffff;strokeColor=#A50040;" vertex="1" parent="1">
          <mxGeometry x="285" y="150" width="20" height="20" as="geometry" />
        </mxCell>
        <mxCell id="YV7EcNf5cNCoO8YkhrmA-91" value="" style="endArrow=none;html=1;rounded=0;entryX=0.75;entryY=1;entryDx=0;entryDy=0;" edge="1" parent="1" source="YV7EcNf5cNCoO8YkhrmA-93" target="YV7EcNf5cNCoO8YkhrmA-66">
          <mxGeometry width="50" height="50" relative="1" as="geometry">
            <mxPoint x="765" y="200" as="sourcePoint" />
            <mxPoint x="640" y="150" as="targetPoint" />
          </mxGeometry>
        </mxCell>
        <mxCell id="YV7EcNf5cNCoO8YkhrmA-92" value="" style="endArrow=none;html=1;rounded=0;entryDx=0;entryDy=0;" edge="1" parent="1" target="YV7EcNf5cNCoO8YkhrmA-93">
          <mxGeometry width="50" height="50" relative="1" as="geometry">
            <mxPoint x="765" y="200" as="sourcePoint" />
            <mxPoint x="765" y="135" as="targetPoint" />
          </mxGeometry>
        </mxCell>
        <mxCell id="YV7EcNf5cNCoO8YkhrmA-93" value="" style="shape=waypoint;sketch=0;fillStyle=solid;size=6;pointerEvents=1;points=[];fillColor=none;resizable=0;rotatable=0;perimeter=centerPerimeter;snapToPoint=1;" vertex="1" parent="1">
          <mxGeometry x="755" y="190" width="20" height="20" as="geometry" />
        </mxCell>
        <mxCell id="YV7EcNf5cNCoO8YkhrmA-94" value="" style="endArrow=none;html=1;rounded=0;entryX=0.25;entryY=1;entryDx=0;entryDy=0;" edge="1" parent="1" target="YV7EcNf5cNCoO8YkhrmA-66">
          <mxGeometry width="50" height="50" relative="1" as="geometry">
            <mxPoint x="745" y="180" as="sourcePoint" />
            <mxPoint x="640" y="150" as="targetPoint" />
          </mxGeometry>
        </mxCell>
        <mxCell id="YV7EcNf5cNCoO8YkhrmA-95" value="" style="shape=waypoint;sketch=0;fillStyle=solid;size=6;pointerEvents=1;points=[];fillColor=none;resizable=0;rotatable=0;perimeter=centerPerimeter;snapToPoint=1;" vertex="1" parent="1">
          <mxGeometry x="735" y="170" width="20" height="20" as="geometry" />
        </mxCell>
        <mxCell id="YV7EcNf5cNCoO8YkhrmA-96" value="" style="endArrow=none;html=1;rounded=0;exitX=0.25;exitY=0;exitDx=0;exitDy=0;fillColor=#d80073;strokeColor=#A50040;strokeWidth=2;" edge="1" parent="1" source="YV7EcNf5cNCoO8YkhrmA-100">
          <mxGeometry width="50" height="50" relative="1" as="geometry">
            <mxPoint x="739.7549999999999" y="281.395" as="sourcePoint" />
            <mxPoint x="792" y="180" as="targetPoint" />
          </mxGeometry>
        </mxCell>
        <mxCell id="YV7EcNf5cNCoO8YkhrmA-97" value="" style="endArrow=none;html=1;rounded=0;" edge="1" parent="1">
          <mxGeometry width="50" height="50" relative="1" as="geometry">
            <mxPoint x="535" y="200" as="sourcePoint" />
            <mxPoint x="650" y="200" as="targetPoint" />
          </mxGeometry>
        </mxCell>
        <mxCell id="YV7EcNf5cNCoO8YkhrmA-112" style="edgeStyle=orthogonalEdgeStyle;rounded=0;orthogonalLoop=1;jettySize=auto;html=1;endArrow=oval;endFill=1;" edge="1" parent="1" source="YV7EcNf5cNCoO8YkhrmA-99">
          <mxGeometry relative="1" as="geometry">
            <mxPoint x="722" y="200" as="targetPoint" />
          </mxGeometry>
        </mxCell>
        <mxCell id="YV7EcNf5cNCoO8YkhrmA-99" value="ะก5" style="whiteSpace=wrap;html=1;aspect=fixed;" vertex="1" parent="1">
          <mxGeometry x="702" y="280" width="40" height="40" as="geometry" />
        </mxCell>
        <mxCell id="YV7EcNf5cNCoO8YkhrmA-113" style="edgeStyle=orthogonalEdgeStyle;rounded=0;orthogonalLoop=1;jettySize=auto;html=1;endArrow=oval;endFill=1;" edge="1" parent="1" source="YV7EcNf5cNCoO8YkhrmA-100">
          <mxGeometry relative="1" as="geometry">
            <mxPoint x="802" y="200" as="targetPoint" />
          </mxGeometry>
        </mxCell>
        <mxCell id="YV7EcNf5cNCoO8YkhrmA-100" value="ะก6" style="whiteSpace=wrap;html=1;aspect=fixed;" vertex="1" parent="1">
          <mxGeometry x="782" y="280" width="40" height="40" as="geometry" />
        </mxCell>
        <mxCell id="YV7EcNf5cNCoO8YkhrmA-101" style="edgeStyle=orthogonalEdgeStyle;rounded=0;orthogonalLoop=1;jettySize=auto;html=1;entryX=0.5;entryY=1;entryDx=0;entryDy=0;endArrow=none;endFill=0;" edge="1" parent="1" source="YV7EcNf5cNCoO8YkhrmA-103" target="YV7EcNf5cNCoO8YkhrmA-100">
          <mxGeometry relative="1" as="geometry" />
        </mxCell>
        <mxCell id="YV7EcNf5cNCoO8YkhrmA-102" style="rounded=0;orthogonalLoop=1;jettySize=auto;html=1;entryX=0.5;entryY=1;entryDx=0;entryDy=0;exitX=0.5;exitY=0;exitDx=0;exitDy=0;endArrow=none;endFill=0;strokeWidth=2;fillColor=#1ba1e2;strokeColor=#006EAF;" edge="1" parent="1" source="YV7EcNf5cNCoO8YkhrmA-103" target="YV7EcNf5cNCoO8YkhrmA-99">
          <mxGeometry relative="1" as="geometry" />
        </mxCell>
        <mxCell id="YV7EcNf5cNCoO8YkhrmA-103" value="D8" style="whiteSpace=wrap;html=1;aspect=fixed;" vertex="1" parent="1">
          <mxGeometry x="782" y="360" width="40" height="40" as="geometry" />
        </mxCell>
        <mxCell id="YV7EcNf5cNCoO8YkhrmA-105" value="" style="endArrow=none;html=1;rounded=0;exitX=0.5;exitY=0;exitDx=0;exitDy=0;fillColor=#d80073;strokeColor=#A50040;strokeWidth=2;" edge="1" parent="1">
          <mxGeometry width="50" height="50" relative="1" as="geometry">
            <mxPoint x="712" y="280" as="sourcePoint" />
            <mxPoint x="712" y="180" as="targetPoint" />
          </mxGeometry>
        </mxCell>
        <mxCell id="YV7EcNf5cNCoO8YkhrmA-107" style="edgeStyle=orthogonalEdgeStyle;rounded=0;orthogonalLoop=1;jettySize=auto;html=1;endArrow=none;endFill=0;fillColor=#1ba1e2;strokeColor=#006EAF;strokeWidth=2;" edge="1" parent="1" source="YV7EcNf5cNCoO8YkhrmA-109" target="YV7EcNf5cNCoO8YkhrmA-99">
          <mxGeometry relative="1" as="geometry" />
        </mxCell>
        <mxCell id="YV7EcNf5cNCoO8YkhrmA-108" style="rounded=0;orthogonalLoop=1;jettySize=auto;html=1;entryX=0.5;entryY=1;entryDx=0;entryDy=0;exitX=0.5;exitY=0;exitDx=0;exitDy=0;endArrow=none;endFill=0;fillColor=#1ba1e2;strokeColor=#006EAF;strokeWidth=2;" edge="1" parent="1" source="YV7EcNf5cNCoO8YkhrmA-109" target="YV7EcNf5cNCoO8YkhrmA-100">
          <mxGeometry relative="1" as="geometry" />
        </mxCell>
        <mxCell id="YV7EcNf5cNCoO8YkhrmA-109" value="D9" style="whiteSpace=wrap;html=1;aspect=fixed;fillColor=#008a00;strokeColor=#005700;fontColor=#ffffff;" vertex="1" parent="1">
          <mxGeometry x="702" y="360" width="40" height="40" as="geometry" />
        </mxCell>
        <mxCell id="YV7EcNf5cNCoO8YkhrmA-110" value="" style="endArrow=none;html=1;rounded=0;entryDx=0;entryDy=0;entryPerimeter=0;" edge="1" parent="1" source="YV7EcNf5cNCoO8YkhrmA-106" target="YV7EcNf5cNCoO8YkhrmA-104">
          <mxGeometry width="50" height="50" relative="1" as="geometry">
            <mxPoint x="535" y="180" as="sourcePoint" />
            <mxPoint x="830" y="180" as="targetPoint" />
          </mxGeometry>
        </mxCell>
        <mxCell id="YV7EcNf5cNCoO8YkhrmA-104" value="" style="shape=waypoint;sketch=0;fillStyle=solid;size=6;pointerEvents=1;points=[];fillColor=#d80073;resizable=0;rotatable=0;perimeter=centerPerimeter;snapToPoint=1;fontColor=#ffffff;strokeColor=#A50040;" vertex="1" parent="1">
          <mxGeometry x="782" y="170" width="20" height="20" as="geometry" />
        </mxCell>
        <mxCell id="YV7EcNf5cNCoO8YkhrmA-111" value="" style="endArrow=none;html=1;rounded=0;entryDx=0;entryDy=0;entryPerimeter=0;" edge="1" parent="1" target="YV7EcNf5cNCoO8YkhrmA-106">
          <mxGeometry width="50" height="50" relative="1" as="geometry">
            <mxPoint x="535" y="180" as="sourcePoint" />
            <mxPoint x="792" y="180" as="targetPoint" />
          </mxGeometry>
        </mxCell>
        <mxCell id="YV7EcNf5cNCoO8YkhrmA-106" value="" style="shape=waypoint;sketch=0;fillStyle=solid;size=6;pointerEvents=1;points=[];fillColor=#d80073;resizable=0;rotatable=0;perimeter=centerPerimeter;snapToPoint=1;fontColor=#ffffff;strokeColor=#A50040;" vertex="1" parent="1">
          <mxGeometry x="702" y="170" width="20" height="20" as="geometry" />
        </mxCell>
        <mxCell id="YV7EcNf5cNCoO8YkhrmA-115" style="rounded=0;orthogonalLoop=1;jettySize=auto;html=1;entryX=0.5;entryY=1;entryDx=0;entryDy=0;endArrow=none;endFill=0;exitX=0.5;exitY=0;exitDx=0;exitDy=0;strokeWidth=2;fillColor=#1ba1e2;strokeColor=#006EAF;" edge="1" parent="1" source="YV7EcNf5cNCoO8YkhrmA-114" target="YV7EcNf5cNCoO8YkhrmA-99">
          <mxGeometry relative="1" as="geometry" />
        </mxCell>
        <mxCell id="YV7EcNf5cNCoO8YkhrmA-116" style="rounded=0;orthogonalLoop=1;jettySize=auto;html=1;entryX=0.5;entryY=1;entryDx=0;entryDy=0;exitX=0.5;exitY=0;exitDx=0;exitDy=0;endArrow=none;endFill=0;strokeWidth=2;fillColor=#1ba1e2;strokeColor=#006EAF;" edge="1" parent="1" source="YV7EcNf5cNCoO8YkhrmA-114" target="YV7EcNf5cNCoO8YkhrmA-100">
          <mxGeometry relative="1" as="geometry" />
        </mxCell>
        <mxCell id="YV7EcNf5cNCoO8YkhrmA-114" value="D10" style="whiteSpace=wrap;html=1;aspect=fixed;fillColor=#008a00;strokeColor=#005700;fontColor=#ffffff;" vertex="1" parent="1">
          <mxGeometry x="620" y="360" width="40" height="40" as="geometry" />
        </mxCell>
      </root>
    </mxGraphModel>
  </diagram>
</mxfile>
